<?xml version="1.0" encoding="utf-8"?>
<!-- Generator: Adobe Illustrator 17.0.0, SVG Export Plug-In . SVG Version: 6.00 Build 0)  -->
<!DOCTYPE svg PUBLIC "-//W3C//DTD SVG 1.1//EN" "http://www.w3.org/Graphics/SVG/1.1/DTD/svg11.dtd">
<svg version="1.1" id="Ebene_1" xmlns="http://www.w3.org/2000/svg" xmlns:xlink="http://www.w3.org/1999/xlink" x="0px" y="0px"
	 width="716px" height="766px" viewBox="0 0 716 766" enable-background="new 0 0 716 766" xml:space="preserve">
<path d="M705.913,405.84c-3.359,8.464-9.996,13.589-18.068,16.819c-7.538,3.017-15.374,5.281-23.018,8.044
	c-3.423,1.237-6.863,2.597-10.005,4.405c-6.919,3.979-9.358,9.593-7.299,17.308c1.405,5.266,3.319,10.43,5.4,15.477
	c5.366,13.011,3.227,18.8-9.381,24.671c-2.237,1.042-4.517,2.106-6.514,3.529c-4.534,3.231-4.876,6.637-1.391,10.989
	c5.419,6.768,5.775,10.782,0.775,18.075c-3.659,5.337-7.842,10.317-11.826,15.429c-8.209,10.533-10.783,22.247-5.456,34.595
	c11.357,26.328-7.952,56.258-33.837,60.576c-26.342,4.395-52.523,2.44-77.804-6.32c-24.114-8.357-48.001-17.398-71.811-26.594
	c-19.538-7.547-29.436-22.616-30.645-43.19c-1.084-18.446-1.255-36.943-2.115-55.405c-0.998-21.407-2-42.857-10.148-63.122
	c-11.829-29.42-33.442-48.112-63.48-57.293c-15.019-4.59-30.387-8.112-45.218-13.218c-13.826-4.76-26.9-11.428-38.161-21.095
	c-19.916-17.097-27.808-39.012-26.223-64.848c1.233-20.099,7.964-37.894,21.796-52.684c14.139-15.119,32.097-22.82,52.319-24.987
	c25.771-2.761,51.622-4.783,77.436-7.148c21.35-1.957,42.765-3.398,64.027-6.058c30.756-3.849,56.753-17.737,78.112-40.095
	c15.869-16.611,28.118-35.708,37.642-56.602c5.504-12.075,11.698-15.815,22.709-14.272c6.309,0.884,10.601,4.76,13.803,9.785
	c18.757,29.447,32.394,61.003,38.307,95.581c1.988,11.624,3.489,23.343,4.815,35.063c1.432,12.657-1.905,24.846-5.207,36.814
	c-3.7,13.413-1.761,25.218,6.737,36.159c21.135,27.214,42.301,54.404,63.177,81.815c4.151,5.45,7.068,11.84,10.555,17.796
	C705.913,399.174,705.913,402.507,705.913,405.84z M301.903,222.771c-35.164,0.026-63.063,27.498-63.305,62.054
	c-0.232,33.077,26.08,62.822,63.302,62.806c36.765-0.017,62.888-28.868,63.026-62.515
	C365.066,250.512,336.857,222.745,301.903,222.771z"/>
<path d="M11,215.864c2.063-1.013,4.037-2.303,6.203-2.993c12.665-4.041,25.342-8.055,38.092-11.817
	c3.625-1.07,5.686-2.977,6.556-6.61c2.091-8.728,4.196-17.457,6.579-26.107c1.229-4.464,0.478-7.902-2.796-11.333
	c-10.12-10.606-19.984-21.456-29.938-32.219c-0.216-0.234-0.326-0.566-0.752-1.331c8.612-11.289,17.354-22.75,26.245-34.406
	c13.624,7.136,27.087,13.968,40.308,21.239c4.215,2.318,7.546,2.173,11.53-0.243c7.679-4.657,15.528-9.046,23.425-13.326
	c3.329-1.804,4.629-4.205,4.739-7.973c0.398-13.653,1.282-27.293,1.558-40.947c0.092-4.543,2.001-6.19,6.095-6.716
	c12.194-1.566,24.37-3.276,37.189-5.015c2.952,9.222,5.954,18.492,8.881,27.786c1.847,5.865,3.248,11.9,5.536,17.582
	c0.896,2.226,3.374,4.635,5.639,5.348c9.344,2.94,18.895,5.219,28.345,7.829c3.643,1.006,6.337-0.177,8.967-2.737
	c9.31-9.065,18.768-17.978,28.174-26.945c5.066-4.83,5.958-4.824,11.356-0.684c7.531,5.775,15.1,11.502,22.718,17.161
	c5.811,4.317,6.09,5.18,2.796,11.462c-6.025,11.491-11.945,23.04-18.158,34.429c-2.085,3.822-1.99,6.937,0.34,10.615
	c4.361,6.883,8.355,14.001,12.403,21.078c3.81,6.661,3.754,6.693,10.84,7.238c-11.673,2.485-23.707,4.469-35.396,7.699
	c-11.605,3.207-22.863,7.669-34.841,11.776c-8.272-16.328-21.924-27.836-40.747-32.497c-13.283-3.289-26.436-2.171-39.108,3.279
	c-25.952,11.161-40.767,37.85-36.688,66.099c3.93,27.216,25.842,47.667,55.804,51.656c0,1.515,0.166,3.128-0.025,4.697
	c-3.055,25.125,4.577,47.18,18.973,67.433c8.538,12.012,17.874,23.191,29.76,32.082c1.106,0.827,1.481,2.63,2.196,3.979
	c-1.129,0.481-2.218,1.226-3.392,1.4c-11.353,1.686-22.734,3.193-34.078,4.937c-4.152,0.638-6.363-0.514-7.635-4.818
	c-3.814-12.907-8.176-25.651-12.068-38.535c-1.307-4.326-3.696-6.625-8.137-7.602c-8.436-1.856-16.832-3.96-25.125-6.371
	c-4.335-1.26-7.552-0.568-10.855,2.553c-9.808,9.266-19.848,18.287-29.808,27.392c-0.599,0.548-1.295,0.989-2.138,1.624
	c-11.761-8.902-23.422-17.727-35.401-26.792c6.238-11.741,12.041-23.52,18.677-34.808c3.605-6.132,3.549-11.029-0.443-16.844
	c-4.509-6.568-8.257-13.668-12.158-20.637c-1.641-2.932-3.772-4.229-7.176-4.337c-14.318-0.457-28.626-1.246-42.945-1.65
	c-3.402-0.096-4.861-0.711-5.298-4.557c-1.275-11.212-3.167-22.354-4.818-33.523C11,218.53,11,217.197,11,215.864z"/>
<path d="M435.947,757.796c-19.799-4.95-39.576-9.994-59.402-14.832c-52.788-12.882-105.599-25.671-158.398-38.512
	c-3.384-0.823-6.805-1.575-10.095-2.695c-14.333-4.879-22.595-19.526-19.328-34.04c3.41-15.149,16.78-25.492,31.998-22.942
	c15.36,2.574,30.455,6.78,45.619,10.464c59.421,14.436,118.817,28.977,178.238,43.412c15.143,3.679,24.871,14.021,25.433,27.434
	c0.638,15.229-7.356,25.963-22.945,30.854c-0.422,0.133-0.75,0.565-1.122,0.857C442.613,757.796,439.28,757.796,435.947,757.796z"/>
<path d="M440.946,7.89c2.132,11.079,4.139,22.185,6.546,33.204c0.328,1.502,2.454,3.049,4.099,3.747
	c5.807,2.464,11.677,4.873,17.716,6.644c2.13,0.625,5.346,0.104,7.154-1.179c7.188-5.102,14.104-10.603,20.938-16.18
	c3.149-2.57,5.518-2.787,8.529,0.3c4.527,4.643,9.315,9.064,14.277,13.24c3.303,2.78,3.207,5.204,0.904,8.514
	c-4.751,6.827-9.058,13.966-13.893,20.73c-2.557,3.578-3.223,6.891-0.607,10.465c4.569,6.243,3.689,11.5-1.921,16.777
	c-9.92,9.329-19.493,19.027-29.242,28.54c-0.669,0.653-1.591,1.048-2.769,1.802c-0.165-22.471-9.737-38.118-31.222-44.921
	c-16.405-5.194-34.556,0.817-45.332,14.231c-12.488,15.546-12.397,31.65,0.587,55.409c-4.33,0.357-8.433,0.703-12.537,1.032
	c-10.778,0.865-21.564,1.64-32.331,2.634c-3.305,0.305-5.362-0.563-6.237-3.936c-0.934-3.602-3.681-4.638-7.126-5.063
	c-10.05-1.241-20.069-2.725-30.856-4.219c-0.242-9.212-0.627-18.305-0.54-27.393c0.011-1.17,2.306-3.009,3.816-3.358
	c8.577-1.987,17.217-3.721,25.877-5.316c3.803-0.701,6.205-2.283,7.318-6.272c1.381-4.946,3.194-9.813,5.291-14.504
	c1.786-3.993,1.298-7.048-1.439-10.479c-6.22-7.794-12.057-15.893-18.262-24.151c6.899-7.376,13.698-14.646,20.682-22.112
	c8.767,5.762,17.461,11.261,25.896,17.132c3.172,2.208,5.861,2.317,9.194,0.7c5.23-2.537,10.798-4.431,15.841-7.273
	c2.062-1.162,4.045-3.913,4.489-6.241c1.652-8.647,2.922-17.392,3.778-26.155c0.442-4.522,2.602-5.383,6.521-5.401
	c4.955-0.022,9.908-0.605,14.861-0.946C434.28,7.89,437.613,7.89,440.946,7.89z"/>
<path d="M236.733,574.417c9.143,2.144,18.847,4.345,28.514,6.7c64.586,15.733,129.164,31.497,193.742,47.261
	c3.225,0.787,6.494,1.467,9.63,2.531c14.585,4.949,22.78,19.998,19.21,35.064c-3.388,14.3-17.678,24.7-32.38,21.912
	c-17.929-3.399-35.608-8.144-53.36-12.452c-57.008-13.833-113.995-27.751-170.999-41.596c-14.721-3.575-23.971-14.158-24.49-28.259
	c-0.492-13.36,7.781-25.142,20.638-29.146C230.07,575.55,233.062,575.179,236.733,574.417z"/>
<path d="M272.493,552.522c0.923-9.628,1.984-18.707,2.523-27.817c0.124-2.085-0.976-4.905-2.505-6.298
	c-4.292-3.912-8.94-7.505-13.795-10.693c-1.742-1.144-4.735-1.584-6.717-0.956c-9.476,3.003-18.801,6.483-28.49,9.903
	c-4.238-7.466-8.495-14.595-12.26-21.975c-0.603-1.181,0.455-4.108,1.67-5.168c6.267-5.472,12.776-10.675,19.328-15.808
	c2.613-2.047,3.845-4.108,3.097-7.645c-1.099-5.194-1.753-10.507-2.207-15.802c-0.295-3.445-1.869-5.349-4.92-6.747
	c-8.746-4.007-17.389-8.238-26.464-12.568c2.492-9.09,4.934-17.996,7.505-27.374c9.467,0.979,18.727,1.725,27.917,2.983
	c4.127,0.565,6.961-0.326,9.389-3.772c2.475-3.512,4.947-8.537,8.349-9.454c3.344-0.901,7.854,2.526,11.852,4.054
	c11.144,4.26,22.288,8.522,34.244,13.093c-10.056,4.938-17.435,11.836-21.567,21.768c-4.153,9.981-4.343,20.053-0.418,30.138
	c6.309,16.209,21.71,26.091,39.649,25.513c18.904-0.609,31.215-12.194,39.98-36.796c2.416,9.043,5.952,17.956,7.013,27.155
	c2.132,18.477,2.93,37.109,4.237,55.68c0.269,3.816,0.633,7.662,0.399,11.46c-0.109,1.77-1.082,4.131-2.453,5.067
	c-6.167,4.208-6.253,4.045-11.041-1.785c-4.861-5.919-9.563-11.99-14.766-17.594c-1.482-1.596-4.505-2.59-6.754-2.48
	c-5.629,0.275-11.29,1.019-16.788,2.248c-2.179,0.487-4.725,2.339-5.785,4.287c-3.81,7-7.151,14.262-10.463,21.52
	c-1.14,2.497-2.141,3.555-5.197,2.611C289.135,556.825,281.071,554.843,272.493,552.522z"/>
<path d="M273.616,251.112c6.009,1.426,8.33,8.903,15.901,6.085c7.615-2.834,4.807-9.65,7.686-14.658c3.173,0,6.746,0,10.225,0
	c2.929,4.855-0.743,11.84,7.071,15.181c7.742,3.31,9.869-4.578,15.893-5.196c1.907,2.089,4.23,4.635,6.636,7.271
	c-0.915,5.284-8.864,7.537-5.829,15.375c3.047,7.871,10.284,4.316,15.005,7.589c0,3.124,0,6.415,0,9.549
	c-4.557,3.744-11.883-0.436-15.367,7.101c-3.616,7.822,4.223,10.311,5.111,16.214c-0.084,0.108-0.434,0.66-0.882,1.115
	c-6.25,6.348-6.253,6.345-13.441,1.004c-5.43-4.035-12.819-1.171-14.087,5.481c-0.497,2.605-0.906,5.227-1.373,7.943
	c-0.689,0.178-1.315,0.467-1.949,0.485c-9.068,0.266-9.068,0.258-10.543-8.49c-1.234-7.315-7.818-10.077-14.11-5.931
	c-1.931,1.272-3.892,2.497-5.678,3.64c-2.777-2.477-5.462-4.872-8.338-7.438c1.338-1.896,2.426-3.522,3.599-5.085
	c5.61-7.477,3.315-13.556-5.869-15.497c-7.726-1.633-7.756-1.688-6.379-11.848c4.567-3.145,11.82,0.82,15.076-7.005
	c3.148-7.567-3.934-10.116-5.161-15.413C269.076,256.098,271.483,253.454,273.616,251.112z M301.307,271.15
	c-8.694,0.048-16.043,7.414-15.908,15.944c0.134,8.437,7.25,15.388,15.816,15.45c8.764,0.063,16.128-7.065,16.173-15.656
	C317.433,278.309,310.068,271.101,301.307,271.15z"/>
</svg>
